<svg width="187" height="98" viewBox="0 0 187 98" fill="none" xmlns="http://www.w3.org/2000/svg">
<path d="M186.6 1H0L80.5 91.5C87.6 99.4 99.1 99.4 106.2 91.5L186.6 1Z" fill="#81B3D3"/>
<path d="M44.2 0.7L93.8 59.1L143.1 1.1L44.2 0.7Z" fill="#23A9E1"/>
<path d="M123 17.3C117.9 17.3 112.9 17.4 107.8 17.4C113.8 10.5 116.5 11.2 123 17.3Z" fill="white"/>
<path d="M81.8 22.7C90.7 22.7 99.6 22.7 108.5 22.7C106.5 21.5 101.8 15.6 99.2 17.8C99 18 91.7 8.9 86.9 13.3C82.7 17.1 80.8 12.8 76 15.8C70.7 19.4 79.2 21.5 81.8 22.7Z" fill="white"/>
<path d="M94.0999 0H43.2V22.5L93.8 84L94.0999 83.6L144.8 23.2V0H94.0999ZM55.9 1.8H61.4V19L55.9 12.5V1.8ZM55.0999 11.6L50.0999 5.7V1.8H55.0999V11.6ZM74.4 8.9L68.6999 1.8H74.4V8.9ZM67.8 12.7L62.2 1.8H67.8V12.7ZM62.0999 3.4L67.5999 14.1C64.7999 16.2 62.8999 18.1 62.0999 19V3.4ZM68.5999 2.9L74.1999 9.8C73.0999 10.4 71.9999 11.1 71.0999 11.7C70.1999 12.3 69.3999 12.9 68.5999 13.5V2.9ZM75.1999 2.7L80 6.9C78.2999 7.6 76.6999 8.4 75.1999 9.2V2.7ZM80.8 6.6L75.4 1.8H81.4V6.4C81.1 6.4 81 6.5 80.8 6.6ZM99.9 1.8H104.9L99.9 4.2V1.8ZM94.0999 1.8H98.5L94.0999 3.9V1.8ZM93.1999 3.8L89 1.8H93.1999V3.8ZM87.6999 4.3L82.5999 1.8H87.6999V4.3ZM82.0999 2.4L86.8 4.7C85.2 5.1 83.5999 5.5 82.0999 6V2.4ZM88.5 2.4L91.9 4C90.7 4.1 89.6 4.2 88.4 4.4V2.4H88.5ZM98.9 2.5V4.4C97.8 4.2 96.7 4.1 95.5 4L98.9 2.5ZM105.4 2.4V6.1C103.9 5.6 102.3 5.1 100.6 4.7L105.4 2.4ZM106.1 1.8H112L106.6 6.6C106.4 6.5 106.3 6.5 106.1 6.4V1.8ZM119.7 1.8H125.3L119.7 12.7V1.8ZM113.1 1.8H118.8L113.1 8.8V1.8ZM112.3 2.7V9.2C110.8 8.4 109.2 7.6 107.5 6.9L112.3 2.7ZM118.9 2.9V13.4C118.2 12.9 117.4 12.4 116.6 11.8C115.6 11.1 114.4 10.4 113.2 9.7L118.9 2.9ZM125.3 3.4V18.6C124.2 17.6 122.4 15.9 119.8 14L125.3 3.4ZM126.1 19.4V1.8H131.6V13.2L126.1 19.4C126.2 19.5 126.1 19.5 126.1 19.4ZM132.4 1.8H137.4V6.5L132.4 12.3V1.8ZM49.4 1.8V4.7L46.9 1.8H49.4ZM62.2 20L62.2999 20.1C62.2999 20.1 65.9 16.2 71.5 12.5C76.7999 9 84.8 4.9 93.8 5C102.7 5 110.9 9.2 116.1 12.7C121.7 16.4 125.4 20.2 125.5 20.3L121.6 24.8C114.7 25.7 109.7 30.9 103 29.8C99.5999 29.2 99.5 27.3 98.5 25.3C97.7999 23.8 96.5999 24 95 23.4C93.5999 22.8 92.7 21.7 89.8 22.3C87.3 22.9 87 26.8 83.8 26.6C82.1 26.5 82 24.1 79.5999 21.1C73.2999 13.5 67.4 14.6 63.4 21.6L93.6999 57.5L62.2 20ZM138.1 5.5V1.8H141.3L138.1 5.5Z" fill="#491213"/>
<path d="M89.7 70.9L93.8 64.4L97.8 70.9L93.8 77.4L89.7 70.9Z" fill="#23A9E1"/>
<path d="M66.4999 32.3C66.9999 32.9 67.3999 33.6 67.2999 34.4C67.1999 35 66.3999 36 66.9999 36.2C67.6999 35.3 68.4999 34.3 69.1999 33.4C68.5999 33.2 63.7999 27.6 63.7999 26.9C62.6999 27.5 61.6999 28.1 60.5999 28.6C60.7999 29.3 61.8999 28.6 62.4999 28.6C63.2999 28.7 63.8999 29.2 64.4999 29.8C62.7999 31.2 58.5999 34.8 58.0999 34.9C57.8999 34.9 56.9999 34.3 56.9999 34.8C56.9999 35.1 57.8999 35.8 57.9999 36C58.6999 36.9 59.4999 37.8 60.1999 38.7C60.7999 38.4 60.0999 38 60.3999 37.5C60.6999 37.1 65.2999 33.2 66.4999 32.3Z" fill="white"/>
<path d="M61.1999 25.3C61.5999 25.2 61.7999 25.7 62.1999 25.2C61.3999 24.2 60.5999 23.3 59.7999 22.3C59.3999 21.9 58.9999 21.4 59.0999 22.3C59.1999 22.9 52.9999 28 52.5999 28.1C52.0999 28.3 51.7999 27.7 51.4999 28.2C52.1999 29.1 52.9999 29.9 53.6999 30.8C53.8999 31.1 54.1999 31.4 54.3999 31.7C54.6999 32 54.5999 31 54.5999 31.1C54.4999 30.6 55.0999 30.2 55.4999 29.9C56.9999 28.6 60.7999 25.3 61.1999 25.3Z" fill="white"/>
<path d="M52.3999 24.4C50.5999 24.9 48.6999 24.2 48.1999 22.4C47.6999 20.6 48.7999 18.6 50.2999 17.6C51.6999 16.6 53.8999 16.6 54.6999 18.4C54.9999 19.2 54.8999 20.1 54.5999 20.9C54.3999 21.4 53.9999 21.9 54.6999 22.2C55.5999 21.1 56.3999 20 57.2999 18.9C56.1999 18.3 55.7999 17.2 54.9999 16.3C54.0999 15.2 52.8999 14.2 51.4999 14C48.5999 13.6 45.8999 16.6 45.6999 19.2C45.5999 20.7 46.0999 22 46.8999 23.2C47.6999 24.2 48.7999 24.8 49.2999 26C49.5999 26.1 51.9999 25 52.5999 24.7C52.4999 24.6 52.4999 24.5 52.3999 24.4C51.6999 24.6 52.3999 24.4 52.3999 24.4Z" fill="white"/>
<path d="M91.6999 60.8C90.4999 60 87.6999 56.1 87.0999 55.5C86.9999 55.4 86.8999 55.2 86.7999 55.1C86.7999 55.1 86.4999 55.3 86.5999 55.3C86.3999 55.4 86.6999 55.9 86.4999 56.2C85.6999 57.4 80.6999 61.2 80.4999 61.4C79.8999 61.8 79.2999 61.2 78.9999 61.7C79.6999 62.6 81.7999 65.2 81.9999 65.3C82.4999 65.4 82.0999 64.5 82.1999 64.3C82.2999 63.9 84.7999 61.9 85.6999 61.1C85.9999 60.8 86.3999 61.5 86.5999 61.8C86.8999 62.3 87.0999 62.8 86.8999 63.4C86.7999 63.8 86.1999 64.3 86.5999 64.6C87.1999 63.9 88.9999 61.8 89.1999 61.6C89.4999 61.3 88.5999 61.6 88.6999 61.5C88.2999 61.7 87.9999 61.7 87.5999 61.5C87.4999 61.4 86.4999 60.4 86.5999 60.3C86.9999 59.9 87.5999 59.3 88.0999 59.2C88.9999 59 89.6999 60.7 89.7999 61.3C89.8999 61.9 89.8999 62.5 89.6999 63.1C89.5999 63.5 89.1999 63.8 89.6999 64C90.3999 63 91.0999 62.1 91.7999 61.1C91.9999 60.9 91.7999 60.8 91.6999 60.8C91.5999 60.7 91.8999 60.8 91.6999 60.8Z" fill="white"/>
<path d="M81.5 56.6C83.7 54.7 84 51.5 82.3 49.3C80.4 46.8 76.9 46.2 74.5 48.2C72.3 50.1 71.9999 53.2 73.6999 55.5C75.6999 58.2 78.9 58.5 81.5 56.6C82.7 55.7 81.4 56.7 81.5 56.6ZM81 51.9C80.4 53.4 78.8 55 77.3 55.6C75.5 56.3 74.2 54.8 74.9 53C75.6 51.5 77.1 49.9 78.6 49.3C80.5 48.6 81.7 50.2 81 51.9C80.6 52.8 81.1 51.7 81 51.9Z" fill="white"/>
<path d="M75.0999 42C75.5999 42.1 76 42.5 76.4 42C75.7 41.1 74.8999 40.2 74.1999 39.4C73.5999 39.7 74.2 39.9 74 40.4C73.8 40.8 71.4 41.2 70.8 41.3C71 40.7 71.7 38.7 72 38.5C72.5 38.1 72.9 38.9 73.3 38.4C72.4 37.3 71.4999 36.2 70.5999 35.1C70.2999 34.7 69.9999 34.1 69.5999 34.4C69.5999 34.4 69.6 35.9 69.5 36.1C69.4 36.3 68.5999 39.7 67.5999 40.6C67.0999 41 65.4 42.5 64.9 42.7C64.4 42.9 64.1 42.1 63.7 42.7C64.5 43.7 65.3999 44.7 66.1999 45.7C66.2999 45.8 66.8 46.6 67 46.6C67.5 46.7 67.0999 45.7 67.0999 45.5C67.2999 45.1 69.5999 42.8 70.5999 42.6C71.7999 42.4 73.5999 41.9 75.0999 42C75.3999 42.1 74.6999 42 75.0999 42Z" fill="white"/>
<path d="M68.8 22.9C64.8 22.7 66.4 18.9 69.2 18.1C71.8 17.3 77.3 19.8 79 21.5C76.2 22.4 72.6 22.2 69.6 22.4C69.4 19.2 68.6 20.3 68.8 22.9Z" fill="#DC6243"/>
<path d="M78.3 35.4C69.7 35.3 75.5 22.1 78.4 22.9C81.8 24 81.4 35.5 78.3 35.4Z" fill="#DC6243"/>
<path d="M84.4 31.1C83.6 33.6 82 34.1 82.2 31C82.4 27.5 84.7 28.3 87.1 27C89.1 25.9 90.2 21.8 93.7 24.2C95.3 25.3 97.1 24.4 97.6 26C97.6 25.9 93.1 36.3 95.6 36.3C90.6 36.3 92.8 30.4 94.7 26.4C92.9 27.3 89.9 33.1 92.3 34C91 35.7 87.1 37.9 85.1 36.3C83.6 35.2 84.4 33.1 84.4 31.1Z" fill="#DC6243"/>
<path d="M88.5 40.7C85 41.7 80.4 39.5 86 38.4C89.5 37.7 93.2 39.1 88.5 40.7C88.6 40.7 88.4 40.7 88.5 40.7Z" fill="#DC6243"/>
<path d="M92.9 40.6C92.2 38.9 93.5 37 95.6 38.4C97.4 39.6 94.7 41.5 92.9 40.6Z" fill="#DC6243"/>
<path d="M89.8999 45.2C87.4999 44.5 79.3999 44.6 84.6999 42.4C86.3999 41.8 94.8999 42.6 89.8999 45.2Z" fill="#DC6243"/>
<path d="M100.4 48.5C98.9999 47.3 97.4999 47.2 96.1999 48.5C94.3999 45.2 87.8999 46.3 84.7999 45.8C86.3999 49.9 99.5999 50.7 100.4 48.5Z" fill="#DC6243"/>
<path d="M98.4999 51C95.2999 50.9 91.7999 50.4 88.8999 51.1C90.7999 51.6 95.2999 52.9 91.0999 54C92.5999 56.2 95.0999 56 96.6999 54.1C95.9999 53.8 95.6999 53.4 95.0999 53C96.6999 52.7 98.2999 51.8 98.4999 51Z" fill="#DC6243"/>
<path d="M102.1 47.1C96.7999 44 98.0999 41.7 102.5 39.5C104.8 38.4 109.8 34.3 111.9 35.6C108.6 39.5 105.3 43.3 102.1 47.1Z" fill="#DC6243"/>
<path d="M98.2999 39.8C93.7999 35.2 105 35.6 106.8 34C108.1 34.4 117.6 25.7 119.9 26.3C118.2 28.2 114.7 34.4 112.1 34.4C110.1 34.4 108.1 34.1 106.6 35.5C104.4 37.6 100.7 38.6 98.2999 39.8Z" fill="#F49774"/>
<path d="M99.7999 34.2C97.2999 35.5 94.9999 30.3 99.2999 30.8C102.1 31.1 105 30.6 107.6 31C105.6 33.3 102.9 34.6 99.7999 34.2Z" fill="#F4B1A4"/>
<path d="M112.4 52.5C112.6 53.1 112.7 53.8 112.6 54.5C112.5 55.4 111.6 57.4 110.4 56.8C109.2 56.2 108.2 55.1 107.2 54.2C108 53.3 108.7 52.5 110.1 52.9C110.5 53 110.8 52.9 110.4 52.6C110 52.4 107.3 50.6 107.1 50.8C106.8 51.1 107.6 51.7 107.3 52.3C107.1 52.7 106.7 53.1 106.4 53.5C105.7 52.9 104.5 52.2 105.3 51.2C105.8 50.5 106.6 50 107.4 49.9C108 49.8 109.2 50.3 109.4 49.7C108.3 49.2 107.2 48.7 106.1 48.1C106.3 48.9 102.8 52.6 102 53.6C101.9 53.7 101.3 54.2 101.3 54.4C101.3 54.8 101.9 54.5 102 54.5C102.5 54.3 108.8 59.6 109 60C109.1 60.3 108.8 60.6 109 60.7C109 60.7 109.2 60.9 109.3 60.9C109.7 60.4 113.8 54.9 114.7 54.7C113.9 53.5 113.1 52.3 112.3 51C111.7 51.3 112.3 52 112.4 52.5Z" fill="white"/>
<path d="M106.2 59.2C104.1 57.9 100.6 60.5 100.1 60.7C99.0999 61.2 98.2999 60.2 98.7999 59.2C99.2999 58.4 100.2 58 101.1 57.9C101.4 57.9 102.4 58.1 102.6 57.9C102.7 57.7 102.8 57.7 102.6 57.6C101.7 57 100.9 56.4 99.9999 55.9C99.7999 57 98.5999 57.6 97.8999 58.3C97.0999 59.2 96.3999 60.2 96.3999 61.5C96.3999 62.6 97.0999 63.6 98.0999 64.2C99.1999 64.8 100.4 64.3 101.4 63.7C102 63.3 102.7 62.8 103.3 62.5C104.3 62 105.6 62.4 105.3 63.8C105 64.9 103.9 65.9 102.9 66.1C102.3 66.3 101.6 66.2 101 66C100.6 65.9 99.9999 65.3 99.7999 65.9C101 66.7 102.1 67.6 103.3 68.4C103.4 67.6 103.8 67.3 104.4 66.8C105.1 66.2 105.8 65.5 106.4 64.7C107.6 63 108 60.6 106.2 59.2Z" fill="white"/>
<path d="M106.2 59.2C107.2 59.8 105.6 58.7 106.2 59.2V59.2Z" fill="white"/>
<path d="M142.9 19.6C142.2 20.3 134.5 17.3 133.9 16.8C133.6 16.7 133.6 15.5 133.2 16C132.8 16.5 132.4 17 132 17.5C131.6 18 131.2 18.5 130.7 19C130.4 19.3 130.2 19.5 130.7 19.7C131.5 19.3 136.1 27 135.7 28.2C135 28.6 128.8 23.1 128.6 22.8C128.5 22.7 128.9 21.8 128.4 21.9C128.2 21.9 127.7 22.8 127.5 23C127.2 23.4 126.9 23.7 126.6 24.1C126.9 24.6 127.1 24.1 127.6 24.1C128 24.2 129.4 25.4 129.8 25.8C129.1 25.8 127.1 25.9 126.9 25.9C126 26 126.5 25.2 125.9 25C125.1 25.9 124.4 26.8 123.6 27.8C123.2 28.3 122.7 28.9 122.3 29.4C122.2 29.5 122.3 29.4 122.3 29.5C122.6 29.8 122.4 29.7 122.9 29.5C123.4 29.3 129.5 34.4 129.7 34.7C130.1 35.1 129.5 35.7 130.1 35.9C130.7 35.2 131.3 34.4 131.9 33.7C132 33.6 132 33.6 131.9 33.5C131.5 33.1 131.4 33.7 130.9 33.7C130.4 33.6 126.5 30.3 125 29.1C126.8 29 132.3 28.8 133.2 28.8C133.5 28.8 134.3 29.7 134.3 30C134.2 30.4 133.8 30.6 134.4 30.8C134.9 30.2 135.4 29.7 135.9 29.1L136.1 28.8C136.2 28.7 136.2 28.7 136.3 28.5L136.5 28.3C136.9 27.8 138.3 26.3 138.1 26.2C137.6 25.8 137.4 26.7 136.8 26.1C136.5 25.9 135.6 24.3 135.4 23.9C135.1 23.5 136 23 136.4 22.8C137.2 22.3 139.6 21.6 139.9 23.1C139.9 23.4 139.6 23.6 139.8 23.8C139.8 23.8 140 24 140.1 24C140.3 23.8 142.5 21.2 143.4 20C143.1 19.8 143 19.7 142.9 19.6ZM135.5 21.8C135.6 21.8 135.7 21.7 135.5 21.8C135.2 22 134.8 22.3 134.5 22.6C134 21.7 133.5 20.8 132.9 19.9C134.1 20.4 135.3 20.9 136.4 21.4C136.2 21.5 135.9 21.6 135.5 21.8Z" fill="white"/>
<path d="M125.8 33C123.4 31 120.2 31.6 118.2 33.8C116.3 36.1 116.5 39.5 118.8 41.4C121.1 43.3 124.5 42.8 126.4 40.6C128.3 38.3 128.2 34.9 125.8 33ZM125.5 39.6C125.5 39.6 125.5 39.7 125.5 39.6C124.2 40.9 122.1 39.7 121 38.9C119.9 38.1 117.9 36.3 119.1 34.8C120.2 33.5 122.2 34.6 123.3 35.3C124.5 36.1 126.7 37.9 125.6 39.5C125.7 39.4 125.7 39.4 125.5 39.6Z" fill="white"/>
<path d="M125.8 33C127 34 125.5 32.8 125.8 33V33Z" fill="white"/>
<path d="M125.5 39.7C125.5 39.6 125.5 39.6 125.5 39.7C125.6 39.6 125.6 39.6 125.6 39.6C125.5 39.6 125.5 39.7 125.5 39.7Z" fill="white"/>
<path d="M119.2 42.1C119.3 42.2 119.5 42.4 119.2 42.1C116.3 39.9 112.9 40.5 110.7 43.2C109.7 44.4 108.7 45.6 107.7 46.8C108.1 47.3 108.5 46.7 109 47C109.4 47.3 115.2 52.1 115.3 52.4C115.5 52.9 115 52.9 115.4 53.3C115.6 53.4 119.9 48.1 120.3 47.1C121.2 45.3 120.6 43.4 119.2 42.1ZM117.9 48.9C117.7 49.2 117.9 49 117.2 49.6C116.9 49.9 110.8 44.9 111 44.7C111.8 43.8 113.6 43.1 114.6 43.4C116.8 43.9 119.8 46.6 117.9 48.9Z" fill="white"/>
</svg>
